<svg width="32" height="21" viewBox="0 0 32 21" fill="none" xmlns="http://www.w3.org/2000/svg">
<path d="M8 4.84615H0V1.61538H8V4.84615ZM8 9.69231H0V12.9231H8V9.69231ZM29.744 21L23.616 14.8131C22.336 15.6531 20.832 16.1538 19.2 16.1538C14.784 16.1538 11.2 12.5354 11.2 8.07692C11.2 3.61846 14.784 0 19.2 0C23.616 0 27.2 3.61846 27.2 8.07692C27.2 9.72462 26.704 11.2431 25.872 12.5192L32 18.7223L29.744 21ZM24 8.07692C24 5.41154 21.84 3.23077 19.2 3.23077C16.56 3.23077 14.4 5.41154 14.4 8.07692C14.4 10.7423 16.56 12.9231 19.2 12.9231C21.84 12.9231 24 10.7423 24 8.07692ZM0 21H16V17.7692H0V21Z" fill="#A1A1A1"/>
</svg>
