<svg width="22" height="22" viewBox="0 0 22 22" fill="none" xmlns="http://www.w3.org/2000/svg">
<path d="M19.25 11L22 13.75L18.5625 15.125L19.25 19.25L15.125 18.5625L13.75 22L11 19.25L8.25 22L6.875 18.5625L2.75 19.25L3.4375 15.125L0 13.75L2.75 11L0 8.25L3.4375 6.875L2.75 2.75L6.875 3.4375L8.25 0L11 2.75L13.75 0L15.125 3.4375L19.25 2.75L18.5625 6.875L22 8.25L19.25 11ZM7.5625 5.5C6.98958 5.5 6.5026 5.76855 6.10156 6.30566C5.70052 6.84277 5.5 7.49089 5.5 8.25C5.5 9.00911 5.70052 9.65723 6.10156 10.1943C6.5026 10.7314 6.98958 11 7.5625 11C8.13542 11 8.6224 10.7314 9.02344 10.1943C9.42448 9.65723 9.625 9.00911 9.625 8.25C9.625 7.49089 9.42448 6.84277 9.02344 6.30566C8.6224 5.76855 8.13542 5.5 7.5625 5.5ZM14.4375 5.5H13.75C13.6927 5.5 13.639 5.51074 13.5889 5.53223C13.5387 5.55371 13.4993 5.57161 13.4707 5.58594C13.4421 5.60026 13.4027 5.63965 13.3525 5.7041C13.3024 5.76855 13.2702 5.81152 13.2559 5.83301C13.2415 5.85449 13.2093 5.91178 13.1592 6.00488C13.109 6.09798 13.0768 6.15885 13.0625 6.1875L6.98242 15.8125C6.88216 15.9844 6.90365 16.1419 7.04688 16.2852C7.1901 16.4284 7.36198 16.5 7.5625 16.5H8.25C8.30729 16.5 8.35384 16.4964 8.38965 16.4893C8.42546 16.4821 8.46484 16.4642 8.50781 16.4355C8.55078 16.4069 8.58301 16.3818 8.60449 16.3604C8.62598 16.3389 8.65462 16.2995 8.69043 16.2422C8.72624 16.1849 8.7513 16.1419 8.76562 16.1133C8.77995 16.0846 8.80859 16.0345 8.85156 15.9629C8.89453 15.8913 8.92318 15.8411 8.9375 15.8125L15.0176 6.1875C15.1178 6.01562 15.0964 5.85807 14.9531 5.71484C14.8099 5.57161 14.638 5.5 14.4375 5.5ZM14.4375 11C13.8646 11 13.3776 11.2686 12.9766 11.8057C12.5755 12.3428 12.375 12.9909 12.375 13.75C12.375 14.5091 12.5755 15.1572 12.9766 15.6943C13.3776 16.2314 13.8646 16.5 14.4375 16.5C15.0104 16.5 15.4974 16.2314 15.8984 15.6943C16.2995 15.1572 16.5 14.5091 16.5 13.75C16.5 12.9909 16.2995 12.3428 15.8984 11.8057C15.4974 11.2686 15.0104 11 14.4375 11ZM14.4375 15.125C14.2513 15.125 14.0902 14.9889 13.9541 14.7168C13.818 14.4447 13.75 14.1188 13.75 13.7393C13.75 13.3597 13.818 13.0374 13.9541 12.7725C14.0902 12.5075 14.2513 12.375 14.4375 12.375C14.6237 12.375 14.7848 12.5075 14.9209 12.7725C15.057 13.0374 15.125 13.3597 15.125 13.7393C15.125 14.1188 15.057 14.4447 14.9209 14.7168C14.7848 14.9889 14.6237 15.125 14.4375 15.125ZM7.5625 9.625C7.3763 9.625 7.21517 9.48893 7.0791 9.2168C6.94303 8.94466 6.875 8.61882 6.875 8.23926C6.875 7.8597 6.94303 7.53744 7.0791 7.27246C7.21517 7.00749 7.3763 6.875 7.5625 6.875C7.7487 6.875 7.90983 7.00749 8.0459 7.27246C8.18197 7.53744 8.25 7.8597 8.25 8.23926C8.25 8.61882 8.18197 8.94466 8.0459 9.2168C7.90983 9.48893 7.7487 9.625 7.5625 9.625Z" fill="#24C273"/>
</svg>
