<svg width="20" height="22" viewBox="0 0 20 22" fill="none" xmlns="http://www.w3.org/2000/svg">
<path fill-rule="evenodd" clip-rule="evenodd" d="M14.3251 14.1883L19.7048 20.1062C19.8939 20.3143 20.0001 20.5966 20 20.8909C19.9999 21.1851 19.8935 21.4673 19.7043 21.6753C19.5151 21.8833 19.2585 22.0001 18.991 22C18.7235 21.9999 18.467 21.8829 18.2779 21.6747L12.8981 15.7569C11.2899 17.1271 9.26759 17.7719 7.24253 17.5601C5.21748 17.3484 3.34182 16.2959 1.99713 14.6169C0.652446 12.9379 -0.0602623 10.7584 0.00399614 8.52184C0.0682545 6.28529 0.904653 4.15967 2.34304 2.57741C3.78143 0.995143 5.71376 0.0750819 7.74693 0.00439586C9.7801 -0.0662901 11.7614 0.717709 13.2877 2.1969C14.8141 3.67609 15.7708 5.73937 15.9634 7.96699C16.1559 10.1946 15.5697 12.4192 14.3241 14.1883H14.3251ZM8.00037 15.3994C9.5916 15.3994 11.1176 14.704 12.2428 13.4663C13.368 12.2286 14.0001 10.5499 14.0001 8.79953C14.0001 7.04914 13.368 5.37044 12.2428 4.13272C11.1176 2.89501 9.5916 2.19967 8.00037 2.19967C6.40915 2.19967 4.88309 2.89501 3.75793 4.13272C2.63276 5.37044 2.00065 7.04914 2.00065 8.79953C2.00065 10.5499 2.63276 12.2286 3.75793 13.4663C4.88309 14.704 6.40915 15.3994 8.00037 15.3994Z" fill="#A1A1A1"/>
</svg>
